<?xml version="1.0" standalone="no"?>
<!DOCTYPE svg PUBLIC "-//W3C//DTD SVG 20010904//EN"
 "http://www.w3.org/TR/2001/REC-SVG-20010904/DTD/svg10.dtd">
<svg version="1.0" xmlns="http://www.w3.org/2000/svg"
 width="2048.000000pt" height="2048.000000pt" viewBox="0 0 2048.000000 2048.000000"
 preserveAspectRatio="xMidYMid meet">
<metadata>
Created by potrace 1.16, written by Peter Selinger 2001-2019
</metadata>
<style>
  path { fill: #fabd2f; }
  @media (prefers-color-scheme: light) {
    path { fill: #b57614; }
  }
</style>
<g transform="translate(0.000000,2048.000000) scale(0.100000,-0.100000)"
stroke="none">
<path d="M2530 19709 c-26 -14 -56 -19 -115 -19 -63 0 -86 -4 -110 -20 -16
-11 -49 -22 -72 -26 -23 -3 -48 -12 -54 -20 -6 -8 -29 -19 -50 -24 -22 -6 -61
-24 -87 -40 -26 -17 -66 -39 -89 -49 -23 -11 -77 -53 -120 -95 -43 -41 -100
-92 -126 -112 -27 -21 -56 -52 -64 -68 -9 -17 -41 -57 -72 -89 -31 -32 -60
-70 -65 -85 -5 -15 -35 -55 -67 -90 -32 -35 -60 -76 -64 -91 -3 -15 -22 -43
-41 -62 -20 -19 -44 -50 -54 -70 -11 -20 -43 -65 -73 -100 -30 -35 -58 -75
-62 -89 -4 -14 -24 -43 -45 -65 -20 -22 -52 -65 -70 -95 -18 -30 -52 -76 -76
-102 -24 -26 -44 -53 -44 -60 0 -7 -25 -42 -56 -78 -31 -36 -63 -81 -71 -100
-8 -19 -33 -54 -54 -77 -22 -24 -39 -50 -39 -59 0 -9 -19 -39 -43 -67 -24 -29
-54 -69 -67 -91 -13 -21 -45 -63 -72 -94 -26 -30 -48 -61 -48 -67 0 -7 -26
-46 -58 -86 -33 -41 -66 -87 -74 -104 -9 -16 -31 -60 -51 -96 -19 -36 -38 -77
-42 -90 -4 -13 -16 -35 -26 -48 -11 -13 -19 -38 -19 -55 0 -17 -8 -45 -19 -61
-10 -17 -21 -60 -25 -96 -4 -37 -16 -78 -27 -95 -17 -26 -19 -48 -19 -233 0
-182 2 -207 19 -235 10 -17 22 -60 26 -96 4 -36 14 -72 21 -81 8 -9 18 -38 23
-65 4 -27 17 -65 29 -84 12 -19 22 -41 22 -49 0 -8 16 -33 35 -57 20 -24 42
-58 50 -77 8 -18 20 -39 28 -46 8 -6 18 -23 21 -37 4 -14 36 -59 71 -100 36
-41 65 -81 65 -90 0 -9 38 -55 84 -103 46 -47 93 -105 105 -129 12 -24 55 -78
95 -120 40 -42 77 -88 81 -101 4 -13 45 -65 91 -116 46 -51 84 -101 84 -110 0
-9 29 -47 64 -83 35 -37 80 -92 99 -123 20 -31 65 -88 101 -128 36 -39 66 -77
66 -85 0 -7 38 -56 85 -107 47 -52 88 -105 91 -119 4 -14 43 -63 89 -110 45
-47 94 -105 108 -130 14 -25 57 -79 96 -122 39 -42 71 -83 71 -92 0 -9 34 -53
76 -98 42 -46 85 -101 96 -123 12 -22 54 -75 95 -118 40 -42 79 -90 85 -105 7
-15 51 -70 99 -122 47 -52 89 -106 94 -120 4 -14 33 -52 64 -85 32 -33 71 -82
86 -110 16 -27 59 -81 96 -120 37 -38 70 -81 74 -95 3 -14 44 -65 91 -115 46
-49 87 -101 90 -115 4 -14 42 -61 85 -105 43 -44 85 -96 93 -115 8 -20 49 -73
91 -119 42 -46 82 -96 89 -112 7 -17 40 -58 73 -92 33 -34 67 -78 76 -98 8
-20 51 -75 96 -122 44 -48 81 -94 81 -104 1 -10 41 -61 90 -113 49 -52 90
-103 90 -113 0 -11 40 -60 89 -111 48 -50 92 -102 96 -116 12 -40 46 -72 62
-59 7 6 13 17 13 23 0 7 18 30 40 51 22 22 49 58 60 80 11 22 42 66 70 97 27
31 50 63 50 71 0 8 22 42 49 74 26 32 51 68 55 80 4 12 34 52 67 88 32 36 59
72 59 80 0 7 24 42 53 77 30 35 62 79 72 98 9 19 36 55 60 80 23 25 45 56 48
70 4 14 33 54 65 90 33 36 63 76 67 90 4 14 37 56 71 95 35 38 64 77 64 87 0
10 28 48 61 85 34 38 68 82 75 99 7 17 40 60 73 95 33 35 63 75 66 88 3 13 24
45 46 70 23 25 47 59 54 76 7 16 38 58 69 92 31 33 56 68 56 76 0 9 18 36 40
62 21 25 59 76 83 113 24 37 56 78 71 92 15 13 35 43 45 65 10 22 41 65 69 96
28 30 56 69 64 86 7 17 39 59 71 93 31 33 57 67 57 74 0 7 11 30 25 50 39 57
33 79 -38 154 -35 37 -75 87 -90 112 -15 25 -63 83 -108 130 -44 47 -89 103
-99 125 -10 22 -53 74 -95 115 -42 41 -86 95 -98 119 -11 24 -53 78 -94 120
-40 42 -76 87 -80 101 -3 14 -44 65 -90 114 -46 49 -86 101 -89 115 -4 14 -46
67 -94 116 -48 50 -99 110 -113 135 -14 25 -63 86 -110 136 -47 51 -88 103
-92 115 -5 13 -48 66 -96 118 -49 52 -89 103 -89 114 0 10 -29 49 -64 85 -35
37 -79 92 -99 122 -19 30 -60 82 -90 115 -61 65 -73 106 -38 125 14 7 1782 10
5630 10 5086 0 5611 -1 5625 -16 25 -24 19 -57 -15 -90 -18 -16 -40 -47 -50
-69 -10 -22 -45 -71 -78 -108 -34 -37 -61 -74 -61 -82 0 -7 -21 -37 -46 -67
-25 -29 -54 -70 -65 -91 -11 -21 -42 -62 -68 -91 -27 -30 -52 -65 -56 -78 -4
-12 -36 -56 -71 -96 -35 -40 -64 -79 -64 -87 0 -8 -29 -47 -65 -87 -36 -40
-65 -81 -65 -90 0 -9 -31 -51 -70 -92 -38 -42 -70 -84 -70 -93 -1 -10 -30 -49
-65 -88 -35 -38 -67 -81 -70 -95 -3 -15 -31 -51 -61 -81 -31 -30 -64 -72 -74
-94 -10 -22 -45 -71 -79 -108 -34 -37 -61 -75 -61 -83 0 -9 -25 -45 -55 -80
-30 -36 -63 -80 -72 -97 -8 -18 -42 -60 -74 -94 -31 -34 -61 -72 -65 -85 -4
-13 -31 -51 -61 -86 -29 -35 -62 -80 -72 -100 -11 -20 -31 -48 -46 -62 -15
-14 -51 -61 -80 -105 -29 -44 -64 -91 -80 -105 -15 -14 -35 -41 -45 -61 -11
-20 -40 -60 -65 -90 -26 -30 -55 -70 -65 -89 -10 -19 -43 -63 -74 -98 -31 -34
-56 -69 -56 -77 0 -8 -29 -48 -65 -89 -35 -41 -70 -88 -77 -104 -7 -17 -39
-58 -70 -92 -32 -33 -58 -70 -58 -80 0 -11 -29 -52 -65 -91 -36 -39 -65 -76
-65 -84 0 -7 -31 -50 -70 -96 -38 -45 -70 -89 -70 -96 0 -7 -27 -43 -61 -79
-33 -36 -66 -78 -73 -95 -7 -16 -40 -60 -73 -97 -33 -37 -64 -79 -68 -92 -4
-14 -26 -45 -49 -70 -24 -25 -55 -68 -71 -95 -15 -28 -47 -70 -70 -95 -23 -25
-53 -65 -68 -90 -14 -25 -42 -63 -62 -85 -20 -22 -45 -56 -55 -76 -11 -20 -41
-61 -68 -90 -28 -30 -57 -70 -65 -89 -8 -19 -42 -66 -76 -103 -34 -37 -61 -74
-61 -82 0 -8 -30 -47 -66 -87 -36 -40 -78 -95 -94 -123 -16 -27 -45 -66 -65
-85 -20 -19 -45 -53 -56 -75 -10 -22 -44 -68 -74 -103 -30 -35 -55 -70 -55
-77 0 -8 -29 -47 -65 -87 -36 -39 -65 -80 -65 -89 0 -10 -31 -52 -70 -93 -38
-42 -70 -83 -70 -92 0 -9 -27 -45 -60 -81 -33 -35 -67 -80 -75 -100 -9 -21
-42 -65 -75 -99 -33 -34 -60 -71 -60 -81 0 -11 -29 -51 -65 -89 -36 -38 -68
-80 -71 -94 -4 -14 -34 -54 -66 -90 -33 -36 -66 -80 -74 -99 -8 -19 -41 -63
-74 -97 -33 -34 -60 -70 -60 -79 0 -10 -26 -47 -59 -84 -32 -36 -68 -84 -79
-106 -11 -22 -41 -60 -67 -85 -26 -25 -56 -65 -66 -89 -11 -23 -38 -63 -62
-87 -23 -24 -51 -61 -63 -83 -11 -21 -44 -66 -72 -100 -29 -34 -59 -76 -68
-94 -9 -18 -35 -52 -59 -77 -23 -25 -54 -66 -69 -93 -15 -26 -45 -66 -67 -90
-22 -23 -47 -57 -56 -75 -8 -18 -47 -68 -86 -110 -38 -42 -78 -95 -87 -117
-10 -22 -43 -65 -74 -95 -31 -30 -56 -62 -56 -71 0 -10 -28 -50 -61 -91 -34
-40 -67 -84 -72 -98 -6 -14 -35 -51 -64 -83 -30 -32 -64 -80 -77 -105 -13 -26
-38 -60 -56 -77 -17 -16 -40 -46 -50 -66 -11 -20 -40 -60 -65 -90 -26 -30 -55
-70 -65 -90 -11 -20 -41 -61 -68 -90 -27 -30 -59 -72 -70 -94 -11 -22 -42 -62
-67 -90 -26 -27 -53 -66 -62 -85 -8 -19 -39 -60 -68 -91 -30 -31 -60 -71 -68
-90 -8 -19 -41 -63 -74 -99 -33 -36 -64 -76 -68 -90 -4 -14 -33 -52 -63 -85
-30 -32 -61 -75 -69 -94 -8 -19 -41 -62 -73 -95 -32 -34 -65 -77 -73 -96 -8
-19 -40 -63 -71 -98 -31 -35 -56 -70 -56 -77 0 -8 -24 -41 -54 -75 -29 -33
-61 -77 -71 -97 -10 -21 -33 -55 -53 -75 -70 -74 -209 -68 1595 -68 1550 0
1619 1 1648 18 21 13 60 21 127 25 71 5 105 12 130 27 18 11 49 20 68 20 19 0
51 8 70 19 19 10 51 22 70 26 19 4 49 16 66 26 17 10 40 19 50 19 11 0 40 11
66 25 26 14 56 25 66 25 11 0 25 7 32 14 6 8 28 20 48 27 20 7 57 29 82 49 25
20 56 41 70 47 14 6 45 27 68 47 24 20 50 36 58 36 7 0 46 30 86 66 40 36 87
71 104 79 43 18 260 240 289 295 13 25 49 70 80 100 31 30 66 74 76 96 11 23
45 69 75 102 30 33 54 67 54 76 0 9 27 45 60 81 32 35 66 80 74 100 9 20 43
66 76 102 33 36 60 72 60 80 0 7 25 43 55 78 30 35 63 81 74 102 10 21 34 52
51 68 18 17 40 48 50 70 10 22 42 67 72 100 30 33 59 71 63 85 4 14 22 41 40
61 18 20 50 63 70 95 20 33 54 77 75 99 21 22 40 51 44 65 3 14 35 57 70 95
36 39 65 78 66 88 0 10 19 39 43 65 24 26 56 69 72 96 15 28 45 68 65 90 21
23 45 55 54 73 8 17 39 58 67 90 28 32 58 74 66 93 8 19 42 63 74 97 32 34 59
70 59 80 0 10 21 41 45 68 25 28 57 70 72 95 14 25 43 63 64 85 20 22 44 56
52 75 8 20 40 63 71 97 31 33 56 68 56 76 0 8 22 42 48 74 26 32 53 70 59 84
6 14 36 53 67 86 31 33 56 68 56 77 0 8 32 52 70 97 39 44 70 87 70 95 0 7 27
44 61 80 33 37 67 83 75 103 8 20 32 54 53 76 21 22 49 58 62 80 13 22 45 66
71 98 26 32 48 63 48 70 0 7 29 45 65 85 36 40 65 81 65 91 0 11 20 41 44 67
24 27 46 58 50 70 3 11 32 50 62 85 31 35 63 80 71 99 8 19 42 63 74 98 32 36
59 71 59 78 0 7 22 39 48 71 27 32 60 78 75 103 14 25 43 61 63 80 20 19 44
53 54 75 10 22 43 68 74 103 31 35 56 70 56 77 0 8 29 47 65 87 35 40 67 85
70 99 3 14 22 41 41 60 20 19 44 52 55 74 10 22 44 68 74 102 30 33 55 68 55
77 0 9 22 40 49 70 27 30 61 76 77 102 15 27 44 67 64 89 20 22 48 58 61 80
13 22 45 66 71 98 26 32 48 65 48 73 0 9 29 46 64 82 35 37 66 78 69 92 4 14
25 46 47 70 22 25 47 59 54 75 7 17 36 55 63 85 28 31 57 71 65 90 8 19 43 65
77 103 33 37 61 75 61 84 0 8 29 48 64 87 35 39 67 82 71 96 4 14 24 43 45 65
21 22 45 56 54 75 9 19 41 63 71 98 30 35 55 69 55 77 0 8 23 40 51 72 28 32
64 81 80 108 16 28 42 64 59 80 17 17 39 48 49 70 10 22 41 65 68 95 28 30 53
66 58 80 4 14 33 52 65 85 32 33 65 76 73 96 8 20 38 61 66 90 28 30 56 68 63
84 6 17 30 53 53 80 23 28 46 61 52 75 6 14 38 55 72 93 33 37 61 74 61 83 0
9 19 39 43 67 24 29 54 70 67 92 14 22 43 60 66 85 23 25 49 61 58 81 9 19 43
66 76 103 33 37 60 73 60 81 0 8 25 43 56 77 31 35 64 81 74 103 10 22 32 53
49 69 17 17 40 48 51 71 11 22 42 65 68 95 27 30 53 66 57 80 4 14 37 56 71
95 35 38 64 78 64 88 0 10 22 42 50 71 28 29 50 58 50 64 0 6 29 47 65 91 36
44 65 87 65 95 0 9 28 46 61 83 34 38 68 84 76 103 8 19 30 51 48 70 18 19 36
46 40 60 4 14 15 36 25 50 10 14 21 36 25 50 4 14 16 36 26 49 11 13 19 31 19
41 0 10 9 29 20 43 11 14 20 33 20 44 0 10 11 42 25 71 14 30 25 71 25 92 0
21 8 48 19 61 13 18 19 47 23 114 4 65 11 102 27 132 19 38 21 58 21 205 0
143 -3 169 -21 208 -14 30 -22 76 -26 135 -4 62 -11 100 -24 121 -11 17 -19
48 -19 68 0 20 -9 54 -19 74 -11 20 -31 62 -44 92 -50 111 -126 260 -145 283
-7 9 -17 27 -20 42 -18 67 -414 467 -488 492 -17 6 -52 26 -77 44 -64 47 -127
85 -157 94 -14 4 -36 16 -49 26 -13 11 -40 19 -61 19 -21 0 -48 8 -61 18 -13
11 -46 22 -72 25 -27 4 -61 16 -77 27 -23 16 -44 20 -117 20 -69 0 -96 4 -126
20 -37 20 -55 20 -8149 19 -7914 -1 -8114 -2 -8148 -20z"/>
<path d="M9505 14752 c-10 -2 -30 -11 -43 -20 -17 -11 -59 -18 -137 -21 -88
-5 -117 -10 -132 -23 -12 -11 -44 -20 -84 -25 -35 -3 -75 -13 -88 -21 -12 -9
-48 -19 -78 -23 -30 -4 -62 -14 -71 -22 -10 -8 -28 -18 -42 -22 -14 -4 -36
-16 -49 -26 -13 -11 -31 -19 -41 -19 -10 0 -28 -8 -41 -19 -13 -10 -35 -22
-49 -26 -14 -4 -36 -15 -50 -25 -14 -10 -36 -21 -50 -25 -14 -4 -41 -22 -60
-40 -19 -18 -53 -40 -74 -49 -22 -9 -60 -36 -86 -60 -26 -24 -66 -54 -90 -66
-51 -26 -437 -411 -456 -455 -7 -16 -36 -57 -64 -90 -29 -33 -60 -78 -70 -100
-10 -22 -41 -62 -70 -90 -28 -27 -59 -68 -69 -90 -10 -22 -41 -65 -68 -95 -28
-30 -57 -69 -66 -86 -9 -18 -38 -56 -65 -85 -27 -30 -58 -72 -70 -94 -11 -22
-45 -68 -76 -103 -31 -34 -56 -70 -56 -79 0 -8 -22 -41 -48 -72 -27 -31 -60
-74 -73 -97 -13 -23 -43 -63 -66 -89 -24 -26 -43 -55 -43 -64 0 -10 -20 -39
-45 -67 -25 -27 -57 -69 -72 -94 -14 -25 -45 -67 -68 -95 -22 -27 -46 -62 -52
-76 -6 -14 -36 -52 -66 -85 -30 -32 -58 -70 -62 -84 -4 -14 -36 -58 -71 -98
-35 -40 -64 -79 -64 -87 0 -8 -27 -45 -61 -81 -33 -37 -67 -83 -75 -103 -8
-20 -30 -52 -48 -71 -19 -19 -46 -55 -61 -80 -16 -25 -47 -67 -70 -95 -23 -27
-49 -64 -58 -80 -8 -17 -40 -59 -71 -93 -31 -35 -56 -69 -56 -77 0 -8 -29 -48
-64 -88 -35 -40 -67 -84 -71 -98 -4 -13 -26 -44 -49 -69 -24 -25 -55 -68 -71
-95 -15 -28 -45 -68 -66 -90 -20 -22 -44 -56 -52 -75 -9 -19 -39 -60 -67 -90
-28 -30 -58 -70 -65 -88 -8 -18 -39 -58 -69 -90 -29 -31 -61 -73 -69 -92 -8
-19 -40 -63 -71 -98 -31 -35 -56 -70 -56 -77 0 -8 -25 -43 -56 -77 -31 -35
-67 -83 -79 -108 -13 -25 -37 -58 -55 -75 -17 -16 -39 -48 -49 -70 -10 -22
-41 -65 -68 -95 -28 -30 -53 -66 -58 -78 -4 -13 -29 -48 -56 -78 -26 -29 -58
-71 -69 -93 -11 -22 -40 -63 -65 -91 -25 -28 -45 -57 -45 -64 0 -7 -29 -46
-65 -87 -35 -41 -65 -82 -65 -92 0 -9 -24 -44 -54 -76 -30 -33 -62 -74 -71
-93 -10 -18 -39 -58 -64 -88 -26 -30 -60 -76 -74 -101 -15 -25 -38 -56 -53
-70 -14 -13 -37 -45 -50 -71 -13 -25 -48 -73 -77 -105 -30 -32 -58 -69 -62
-83 -4 -14 -37 -58 -71 -98 -35 -40 -64 -79 -64 -87 0 -8 -27 -45 -61 -81 -33
-37 -67 -83 -75 -102 -7 -19 -28 -48 -45 -66 -17 -17 -38 -46 -46 -65 -8 -19
-41 -64 -74 -100 -32 -36 -59 -74 -59 -84 0 -10 -22 -42 -49 -70 -26 -29 -55
-66 -64 -83 -9 -17 -43 -64 -77 -104 -34 -40 -70 -90 -80 -109 -10 -20 -33
-49 -50 -66 -18 -16 -40 -48 -50 -70 -10 -22 -42 -67 -72 -100 -30 -33 -59
-71 -63 -85 -4 -14 -27 -47 -49 -75 -23 -27 -47 -61 -53 -75 -6 -14 -35 -52
-65 -85 -31 -33 -59 -71 -63 -85 -4 -14 -36 -58 -71 -98 -35 -40 -64 -80 -64
-89 0 -8 -27 -44 -59 -79 -33 -35 -69 -83 -79 -106 -11 -24 -34 -56 -52 -73
-17 -16 -37 -44 -44 -60 -7 -17 -37 -57 -65 -90 -29 -33 -59 -74 -66 -92 -8
-18 -41 -61 -74 -97 -34 -36 -61 -74 -61 -83 0 -10 -20 -41 -45 -68 -25 -28
-57 -70 -72 -95 -15 -25 -46 -69 -70 -98 -24 -29 -43 -60 -43 -68 0 -8 -32
-48 -70 -89 -39 -41 -70 -81 -70 -91 0 -9 -25 -44 -56 -77 -31 -34 -63 -77
-71 -96 -9 -20 -39 -62 -69 -94 -29 -31 -62 -76 -72 -100 -11 -23 -34 -55 -52
-72 -17 -16 -38 -43 -45 -60 -7 -16 -36 -57 -65 -90 -29 -33 -58 -75 -66 -93
-8 -18 -41 -60 -74 -95 -33 -34 -60 -69 -60 -78 0 -9 -25 -47 -56 -84 -30 -38
-64 -84 -74 -104 -10 -20 -34 -51 -54 -70 -19 -19 -38 -47 -41 -63 -4 -16 -22
-46 -42 -66 -19 -20 -50 -62 -70 -92 -20 -30 -54 -75 -75 -100 -22 -25 -48
-61 -59 -81 -10 -20 -40 -61 -67 -90 -27 -30 -53 -65 -57 -79 -4 -14 -25 -46
-46 -71 -22 -26 -39 -51 -39 -55 0 -8 -56 -124 -80 -164 -4 -8 -20 -42 -35
-75 -15 -33 -35 -78 -45 -100 -10 -22 -21 -62 -25 -90 -4 -27 -15 -64 -26 -81
-15 -24 -19 -50 -19 -115 0 -62 -6 -95 -20 -128 -17 -38 -20 -65 -20 -217 0
-155 2 -178 20 -211 16 -30 20 -57 20 -129 0 -75 3 -96 19 -116 11 -13 22 -46
26 -73 4 -28 16 -64 26 -81 11 -17 19 -47 19 -66 0 -20 9 -46 19 -60 11 -13
23 -36 26 -51 4 -14 13 -31 20 -37 8 -7 19 -28 26 -48 6 -20 24 -53 39 -72 15
-19 36 -53 48 -75 11 -22 32 -51 47 -65 15 -14 35 -43 45 -65 22 -49 228 -259
283 -286 21 -11 58 -38 81 -59 23 -22 63 -48 88 -59 25 -11 49 -24 52 -30 4
-6 15 -11 25 -11 10 0 29 -8 42 -18 13 -11 39 -24 58 -31 19 -6 42 -17 50 -25
9 -7 30 -17 46 -20 17 -4 37 -14 47 -23 9 -8 40 -18 70 -22 29 -4 67 -14 83
-23 17 -9 72 -19 130 -23 66 -5 113 -14 137 -26 36 -19 237 -19 8199 -19 8056
0 8162 0 8193 19 20 13 60 22 111 27 54 5 88 13 104 25 13 11 35 19 50 19 14
0 49 12 76 25 28 14 56 25 64 25 7 0 34 18 60 39 26 22 59 43 73 46 35 9 369
348 396 402 12 23 46 68 75 100 30 32 58 69 62 83 4 14 36 58 71 98 35 40 64
80 64 89 0 8 25 43 56 76 31 34 63 77 71 97 8 19 32 53 53 75 21 22 41 51 45
65 4 14 36 58 71 98 35 40 64 80 64 88 0 8 18 34 40 58 22 23 46 57 53 75 7
17 41 63 75 101 34 38 62 76 62 85 0 8 17 34 38 58 21 23 51 64 67 92 16 27
47 70 71 95 23 25 45 56 49 70 4 14 25 45 46 71 22 25 39 50 39 55 0 5 16 34
36 64 44 68 104 185 104 203 0 8 11 35 25 61 14 26 25 62 25 80 0 18 8 44 18
57 14 17 21 48 25 109 4 53 13 102 26 130 29 62 28 178 0 240 -15 32 -22 75
-26 145 -5 76 -10 106 -24 124 -11 13 -19 40 -19 61 0 22 -8 48 -19 62 -11 13
-23 38 -27 54 -4 16 -15 40 -26 53 -10 13 -18 30 -18 38 0 8 -11 31 -25 51
-14 20 -25 43 -25 50 0 8 -29 47 -65 87 -36 40 -65 80 -65 90 0 9 -29 47 -64
83 -35 37 -71 83 -79 103 -8 21 -47 71 -86 111 -39 41 -76 89 -83 105 -7 17
-49 68 -92 114 -43 46 -85 100 -94 119 -8 19 -50 72 -93 117 -43 45 -85 97
-93 115 -8 18 -44 66 -80 105 -36 40 -76 92 -90 115 -14 24 -48 66 -76 93 -28
28 -67 77 -87 110 -20 33 -76 101 -125 152 -48 51 -88 100 -88 110 0 10 -41
61 -90 113 -49 52 -89 103 -90 113 0 10 -35 55 -78 100 -43 46 -86 101 -96
123 -11 21 -22 41 -26 44 -25 19 -160 175 -160 186 0 7 -36 53 -80 103 -43 50
-88 107 -99 128 -11 21 -45 63 -76 93 -31 30 -67 76 -80 101 -13 26 -57 81
-97 124 -40 43 -84 97 -98 120 -14 23 -54 73 -89 111 -35 38 -70 83 -77 101
-8 18 -53 74 -101 126 -49 51 -95 106 -103 122 -8 17 -56 76 -107 132 -51 57
-93 110 -93 120 0 9 -31 49 -70 89 -39 40 -70 81 -70 92 0 11 -37 59 -84 109
-47 49 -90 103 -98 120 -7 17 -49 70 -93 118 -44 48 -84 99 -90 115 -5 15 -47
67 -92 114 -46 48 -83 93 -83 101 0 19 -58 85 -74 85 -14 0 -87 -91 -126 -155
-13 -22 -52 -70 -87 -107 -35 -36 -63 -75 -63 -85 0 -11 -23 -46 -50 -77 -28
-32 -57 -70 -65 -85 -8 -16 -37 -55 -65 -87 -27 -33 -50 -67 -50 -77 0 -9 -24
-44 -54 -76 -30 -33 -64 -77 -74 -98 -11 -21 -36 -56 -57 -78 -20 -22 -48 -60
-62 -85 -14 -25 -43 -64 -64 -87 -21 -22 -46 -58 -57 -80 -11 -21 -45 -66 -76
-101 -31 -34 -56 -69 -56 -77 0 -8 -29 -47 -64 -86 -36 -39 -68 -84 -71 -99
-3 -15 -22 -42 -41 -61 -20 -19 -46 -54 -59 -79 -13 -25 -46 -70 -73 -100 -27
-30 -53 -66 -57 -80 -4 -14 -36 -55 -71 -92 -38 -39 -64 -75 -64 -87 0 -12
-19 -43 -43 -69 -24 -26 -54 -65 -67 -87 -13 -22 -49 -69 -80 -105 -32 -36
-65 -81 -75 -100 -10 -19 -38 -57 -61 -85 -24 -27 -44 -55 -44 -62 0 -7 -29
-47 -65 -90 -36 -43 -65 -84 -65 -91 0 -8 -9 -27 -21 -43 -24 -34 -27 -28 62
-124 25 -27 56 -68 69 -90 13 -22 63 -83 110 -135 48 -52 91 -106 95 -120 4
-13 52 -70 106 -126 54 -56 108 -122 120 -146 12 -23 57 -80 100 -126 44 -46
79 -90 79 -98 0 -8 40 -58 89 -112 48 -54 92 -108 96 -122 4 -13 51 -69 104
-125 53 -55 103 -114 111 -130 8 -17 54 -73 101 -126 48 -53 90 -107 94 -120
5 -13 46 -64 92 -114 47 -49 96 -110 110 -135 15 -25 63 -83 108 -130 133
-138 174 -236 109 -260 -35 -14 -11193 -14 -11228 0 -42 16 -42 48 1 119 21
35 61 90 89 122 29 32 56 68 60 81 4 13 32 50 62 83 30 33 62 78 72 100 10 22
39 60 65 85 26 25 56 65 67 90 10 24 46 72 79 106 32 34 59 70 59 79 0 10 25
45 56 78 31 34 63 77 71 96 9 20 40 63 70 95 31 33 62 75 69 92 8 18 30 50 50
71 20 21 42 52 50 70 7 17 38 58 68 90 29 32 61 74 69 93 8 19 42 66 76 103
34 37 61 74 61 82 0 8 29 47 65 87 36 40 65 81 65 91 0 10 32 51 70 92 39 41
70 83 70 94 0 11 22 43 49 73 26 29 56 68 66 87 9 19 36 55 59 80 23 25 55 68
71 96 16 27 47 70 70 95 22 25 54 65 69 90 16 25 50 70 75 100 26 30 53 68 61
84 8 16 36 52 61 80 26 29 54 67 62 86 8 19 39 62 69 95 30 33 58 70 62 83 4
13 35 53 67 90 33 37 66 81 73 97 7 17 38 58 68 90 30 33 64 78 76 100 11 22
43 65 70 95 27 30 53 66 57 80 4 14 36 55 71 92 37 38 64 75 64 87 0 12 28 52
65 92 36 39 65 77 65 84 0 7 27 46 61 86 33 40 67 86 76 103 9 17 40 57 70 89
29 32 60 73 67 90 8 18 41 61 74 97 32 36 63 76 67 90 4 14 37 56 71 95 35 38
64 77 64 87 0 10 21 41 48 70 26 29 58 71 72 93 13 22 46 66 72 98 26 32 48
64 48 71 0 7 27 42 59 78 32 35 66 79 74 98 8 19 42 66 76 103 34 37 61 74 61
82 0 8 27 45 61 82 33 37 67 84 75 103 8 19 39 60 68 90 30 30 58 67 62 82 5
15 37 59 72 97 34 38 62 77 62 86 0 9 32 49 70 90 39 41 70 83 70 94 0 11 32
54 70 95 39 42 70 82 70 90 0 8 27 46 61 83 33 37 67 84 75 102 8 19 41 63 74
97 33 34 60 71 60 81 0 10 29 50 64 88 35 39 67 81 71 95 4 14 34 53 66 88 33
34 66 79 74 99 9 21 42 65 75 99 33 34 60 71 60 81 0 10 32 53 70 96 39 43 70
85 70 93 0 9 27 43 59 77 32 34 66 78 74 97 8 19 39 62 70 96 30 33 62 76 70
95 9 18 39 58 67 88 28 30 58 70 66 90 8 19 41 63 74 97 33 34 60 71 60 81 0
10 32 53 70 96 39 43 70 84 70 92 0 8 25 43 56 77 31 35 67 83 79 108 13 25
37 58 54 75 18 16 44 50 58 75 15 25 47 70 73 100 26 30 57 73 70 95 13 22 42
60 65 85 23 25 55 67 70 95 16 27 47 70 70 95 23 25 52 63 65 85 13 22 40 58
60 80 20 22 50 62 65 90 16 27 48 70 72 96 23 25 48 60 56 77 7 17 39 61 72
98 33 37 65 79 71 93 6 14 37 54 68 89 31 35 62 77 70 95 8 18 41 63 75 100
34 37 61 73 61 79 0 6 26 42 58 80 31 38 75 96 97 128 22 32 53 75 69 94 16
20 26 40 22 44 -8 7 -3135 11 -3171 4z"/>
</g>
</svg>
